# xmcd CD database file
#
# Track frame offsets:
#	150
#	21537
#	38230
#	56555
#	75442
#	89602
#	113625
#	133857
#	152827
#	173405
#	191862
#	205127
#
# Disc length: 2939 seconds
#
# Revision: 2
# Processed by: cddbd v1.5.1PL2 Copyright (c) Steve Scherf et al.
# Submitted via: CDex 1.51
#
DISCID=9f0b790c
DTITLE=Robert Bradley's Blackwater Surprise - Time To Discover
DYEAR=1999
DGENRE=Blues
TTITLE0=Higher (ft Kid Rock)
TTITLE1=Ride
TTITLE2=Baby
TTITLE3=Gambler
TTITLE4=You and Me
TTITLE5=Take Love And Recieve It
TTITLE6=Time To Discover
TTITLE7=Ultimate Sacrifice
TTITLE8=Mr. Tony
TTITLE9=Tramp 2 (ft Kid Rock)
TTITLE10=Uncle John
TTITLE11=Bonus Track
EXTD=YEAR: 1999
EXTT0=
EXTT1=
EXTT2=
EXTT3=
EXTT4=
EXTT5=
EXTT6=\t
EXTT7=
EXTT8=
EXTT9=
EXTT10=
EXTT11=
PLAYORDER=
